<svg xmlns="http://www.w3.org/2000/svg" xmlns:xlink="http://www.w3.org/1999/xlink" x="0px" y="0px"
	 width="24px" height="24px" viewBox="0 0 24 24" enable-background="new 0 0 24 24" xml:space="preserve">
<path fill="none" stroke="#EE2852" stroke-miterlimit="10" d="M14.455,13.719c0,0.514-0.434,0.93-0.967,0.93h-3.065
	c-0.534,0-0.968-0.416-0.968-0.93v-4.07h5V13.719z"/>
<path fill="#EE2A53" d="M11.315,9.843V7.796c0-0.276,0.225-0.5,0.5-0.5h0.281c0.275,0,0.5,0.224,0.5,0.5v2.047
	c0,0.027-0.012,0.052-0.016,0.078h1.008c0.002-0.026,0.008-0.052,0.008-0.078V7.796c0-0.827-0.672-1.5-1.5-1.5h-0.281
	c-0.827,0-1.5,0.673-1.5,1.5v2.047c0,0.026,0.007,0.052,0.008,0.078h1.008C11.327,9.895,11.315,9.871,11.315,9.843z"/>
<rect x="6.456" y="4.55" fill="none" stroke="#EE2852" stroke-miterlimit="10" width="11" height="13"/>
<line fill="none" stroke="#EE2852" stroke-miterlimit="10" x1="5.956" y1="20.5" x2="10.956" y2="20.5"/>
<polyline fill="none" stroke="#EE2A53" stroke-width="0.75" stroke-miterlimit="10" points="21.344,9.75 23.398,11.803 
	21.25,13.953 "/>
<polyline fill="none" stroke="#EE2A53" stroke-width="0.75" stroke-miterlimit="10" points="2.617,9.501 0.563,11.555 2.711,13.705 
	"/>
</svg>
