<svg xmlns="http://www.w3.org/2000/svg" xmlns:xlink="http://www.w3.org/1999/xlink" x="0px" y="0px"
	 width="24px" height="24px" viewBox="0 0 24 24" xml:space="preserve">
<path fill="none" stroke="#EE2852" stroke-miterlimit="10" d="M21.459,22.162c0,0.715-0.604,1.294-1.347,1.294h-4.265
	c-0.743,0-1.347-0.579-1.347-1.294v-5.664h6.958V22.162z"/>
<path fill="#EE2A53" d="M17.196,16.516v-1.922c0-0.276,0.275-0.625,0.613-0.625h0.345c0.338,0,0.613,0.349,0.613,0.625v1.922
	c0,0.027-0.014,0.052-0.019,0.078h1.236c0.001-0.026,0.01-0.052,0.01-0.078v-1.922c0-0.827-0.825-1.625-1.841-1.625H17.81
	c-1.016,0-1.841,0.798-1.841,1.625v1.922c0,0.026,0.009,0.052,0.01,0.078h1.236C17.21,16.567,17.196,16.543,17.196,16.516z"/>
<rect x="0.51" y="0.516" fill="none" stroke="#EE2852" stroke-miterlimit="10" width="10" height="10"/>
<rect x="13.479" y="0.516" fill="none" stroke="#EE2852" stroke-miterlimit="10" width="10" height="10"/>
<rect x="0.51" y="13.531" fill="none" stroke="#EE2852" stroke-miterlimit="10" width="10" height="10"/>
</svg>
