<svg width="23" height="23" viewBox="0 0 23 23" fill="none" xmlns="http://www.w3.org/2000/svg">
<path id="Union" fill-rule="evenodd" clip-rule="evenodd" d="M0.499512 9.96167C0.499512 15.4542 4.96868 19.9233 10.4612 19.9233C12.7096 19.9233 14.7866 19.1744 16.4557 17.9129L21.2405 22.6982C21.336 22.794 21.4495 22.8699 21.5745 22.9217C21.6995 22.9735 21.8334 23.0001 21.9687 23C22.1726 23.0004 22.3721 22.9403 22.5417 22.8272C22.7114 22.7141 22.8437 22.5531 22.9217 22.3647C22.9997 22.1763 23.02 21.9689 22.98 21.769C22.94 21.569 22.8415 21.3854 22.697 21.2416L17.9643 16.5074C19.4946 14.7555 20.4229 12.4648 20.4229 9.96167C20.4229 4.46917 15.9537 0 10.4612 0C4.96868 0 0.499512 4.46917 0.499512 9.96167ZM2.31072 9.96167C2.31072 5.46715 5.96756 1.81121 10.4612 1.81121C14.9548 1.81121 18.6116 5.46715 18.6116 9.96167C18.6116 14.4562 14.9548 18.1121 10.4612 18.1121C5.96756 18.1121 2.31072 14.4562 2.31072 9.96167Z" fill="white"/>
</svg>
