<svg width="23" height="23" viewBox="0 0 23 23" fill="none" xmlns="http://www.w3.org/2000/svg">
<path id="Union" fill-rule="evenodd" clip-rule="evenodd" d="M0.5 9.96167C0.5 15.4542 4.96917 19.9233 10.4617 19.9233C12.7101 19.9233 14.7871 19.1744 16.4562 17.9129L21.241 22.6982C21.3365 22.794 21.45 22.8699 21.575 22.9217C21.7 22.9735 21.8339 23.0001 21.9692 23C22.1731 23.0004 22.3726 22.9403 22.5422 22.8272C22.7119 22.7141 22.8441 22.5531 22.9222 22.3647C23.0002 22.1763 23.0205 21.9689 22.9805 21.769C22.9405 21.569 22.842 21.3854 22.6974 21.2416L17.9647 16.5074C19.4951 14.7555 20.4233 12.4648 20.4233 9.96167C20.4233 4.46917 15.9542 0 10.4617 0C4.96917 0 0.5 4.46917 0.5 9.96167ZM2.31121 9.96167C2.31121 5.46715 5.96805 1.81121 10.4617 1.81121C14.9553 1.81121 18.6121 5.46715 18.6121 9.96167C18.6121 14.4562 14.9553 18.1121 10.4617 18.1121C5.96805 18.1121 2.31121 14.4562 2.31121 9.96167Z" fill="#00263D"/>
</svg>
