<svg xmlns="http://www.w3.org/2000/svg" xmlns:xlink="http://www.w3.org/1999/xlink" x="0px" y="0px"
	 width="24px" height="24px" viewBox="0 0 24 24" xml:space="preserve">
<path fill="none" d="M15.675,20.513h-3.404c0.446,1.42,1.76,2.459,3.325,2.459c1.929,0,3.498-1.57,3.498-3.5
	c0-0.695-0.21-1.341-0.561-1.886v0.029C18.533,19.213,17.251,20.513,15.675,20.513z"/>
<path fill="none" d="M15.596,14.972c0.696,0,1.349,0.173,1.938,0.456V7.614H6.345v10.001c0,1.046,0.834,1.897,1.859,1.897h2.895
	c0-0.014-0.004-0.027-0.004-0.041C11.094,16.99,13.113,14.972,15.596,14.972z"/>
<path fill="#EE2852" d="M8.035,19.879c-1.088,0-1.973-0.904-1.973-2.014V7.249h11.877v8.294c0.387,0.187,0.741,0.424,1.062,0.704
	V6.187H5v11.679c0,1.695,1.362,3.074,3.035,3.074h3.21c-0.082-0.341-0.134-0.695-0.137-1.061H8.035z"/>
<path fill="#EE2852" d="M18.484,15.682c-0.317-0.277-0.669-0.514-1.053-0.699c-0.619-0.298-1.306-0.479-2.038-0.479
	c-2.611,0-4.736,2.124-4.736,4.734c0,0.015,0.004,0.028,0.004,0.043c0.003,0.363,0.055,0.713,0.136,1.053
	c0.498,2.081,2.363,3.639,4.595,3.639c2.609,0,4.732-2.124,4.732-4.734C20.126,17.813,19.481,16.55,18.484,15.682z M15.394,22.92
	c-1.646,0-3.028-1.094-3.499-2.587c-0.105-0.335-0.176-0.685-0.181-1.053c-0.001-0.015-0.005-0.028-0.005-0.043
	c0-2.03,1.653-3.683,3.684-3.683c0.754,0,1.454,0.229,2.038,0.621c0.422,0.281,0.777,0.65,1.053,1.077
	c0.368,0.573,0.59,1.253,0.59,1.984C19.074,21.268,17.423,22.92,15.394,22.92z"/>
<g>
	<path fill="#EE2852" d="M17.393,19.614h-1.585v1.622h-0.832v-1.622h-1.585V18.86h1.585v-1.624h0.832v1.624h1.585V19.614z"/>
</g>
<path fill="none" d="M12.647,2.371H9.792c-0.218,0-0.401,0.251-0.401,0.548v6.769h3.658V2.919
	C13.049,2.622,12.865,2.371,12.647,2.371z"/>
<path fill="#EE2852" d="M10.015,2.756c0-0.315,0.195-0.582,0.427-0.582h3.033c0.231,0,0.427,0.267,0.427,0.582v7.19h1.062v-7.19
	c0-0.907-0.668-1.645-1.488-1.645h-3.033c-0.821,0-1.489,0.738-1.489,1.645v7.19h1.062V2.756z"/>
</svg>
