<svg xmlns="http://www.w3.org/2000/svg" xmlns:xlink="http://www.w3.org/1999/xlink" x="0px" y="0px"
	 width="24px" height="24px" viewBox="0 0 24 24" enable-background="new 0 0 24 24" xml:space="preserve">
<g>
	<path fill="none" d="M0,15.73c2.056,0,3.729-1.674,3.729-3.729c0-2.057-1.672-3.73-3.729-3.73h0L0,15.73L0,15.73z"/>
	<path fill="#EE2852" d="M0,7.271L0,7.271l0,1h0c2.056,0,3.729,1.673,3.729,3.73c0,2.055-1.672,3.729-3.729,3.729h0v1h0
		c2.607,0,4.729-2.121,4.729-4.729C4.728,9.394,2.607,7.271,0,7.271z"/>
	<path fill="#EE2852" d="M23.997,7.271L23.997,7.271l0.001,1h-0.001c-2.056,0-3.729,1.673-3.729,3.73
		c0,2.055,1.673,3.729,3.729,3.729h0.001v1h-0.001c-2.607,0-4.729-2.121-4.729-4.729C19.269,9.394,21.39,7.271,23.997,7.271z"/>
	<path fill="none" stroke="#EE2852" stroke-miterlimit="10" d="M16.249,12c0,2.348-1.902,4.252-4.249,4.252
		c-2.347,0-4.25-1.904-4.25-4.252c0-2.346,1.903-4.25,4.25-4.25C14.347,7.75,16.249,9.654,16.249,12z"/>
</g>
</svg>
