<svg xmlns="http://www.w3.org/2000/svg" xmlns:xlink="http://www.w3.org/1999/xlink" x="0px" y="0px"
	 width="24px" height="24px" viewBox="0 0 24 24" enable-background="new 0 0 24 24" xml:space="preserve">
<polyline fill="none" stroke="#EE2A53" stroke-width="0.75" stroke-miterlimit="10" points="2.667,9.552 0.61,11.606 2.759,13.756 
	"/>
<polyline fill="none" stroke="#EE2A53" stroke-width="0.75" stroke-miterlimit="10" points="21.336,9.552 23.391,11.606 
	21.242,13.756 "/>
<rect x="6.5" y="2.5" fill="none" stroke="#EE2A53" stroke-miterlimit="10" width="11" height="19"/>
<line fill="none" stroke="#EE2852" stroke-miterlimit="10" x1="9" y1="14.531" x2="15" y2="14.531"/>
<line fill="none" stroke="#EE2852" stroke-miterlimit="10" x1="10" y1="16.639" x2="14" y2="16.639"/>
<g>
	<path fill="#EE2852" d="M10.679,12.5l-0.358-0.262c0.097-0.121,0.199-0.294,0.305-0.521c0.106-0.227,0.193-0.477,0.259-0.751
		c0.066-0.273,0.082-0.541,0.047-0.803c-0.063,0.024-0.12,0.045-0.173,0.059c-0.053,0.013-0.106,0.019-0.159,0.019
		c-0.167,0-0.312-0.061-0.431-0.183C10.048,9.937,9.989,9.783,9.989,9.6c0-0.241,0.073-0.429,0.219-0.561
		c0.146-0.13,0.316-0.196,0.51-0.196c0.309,0,0.543,0.116,0.703,0.346C11.58,9.42,11.66,9.7,11.66,10.031
		c0,0.219-0.042,0.484-0.126,0.797c-0.084,0.314-0.199,0.621-0.344,0.921C11.043,12.049,10.872,12.301,10.679,12.5z"/>
</g>
<g>
	<path fill="#EE2852" d="M13.03,12.5l-0.357-0.262c0.098-0.121,0.198-0.294,0.304-0.521c0.107-0.227,0.193-0.477,0.26-0.751
		c0.066-0.273,0.082-0.541,0.046-0.803c-0.063,0.024-0.12,0.045-0.172,0.059c-0.053,0.013-0.106,0.019-0.159,0.019
		c-0.167,0-0.312-0.061-0.431-0.183c-0.12-0.121-0.18-0.274-0.18-0.458c0-0.241,0.073-0.429,0.219-0.561
		c0.146-0.13,0.316-0.196,0.512-0.196c0.309,0,0.543,0.116,0.701,0.346c0.159,0.23,0.239,0.511,0.239,0.842
		c0,0.219-0.041,0.484-0.126,0.797c-0.085,0.314-0.199,0.621-0.345,0.921C13.395,12.049,13.225,12.301,13.03,12.5z"/>
</g>
</svg>
