<svg xmlns="http://www.w3.org/2000/svg" xmlns:xlink="http://www.w3.org/1999/xlink" x="0px" y="0px"
	 width="24px" height="24px" viewBox="0 0 24 24" enable-background="new 0 0 24 24" xml:space="preserve">
<g>
	<path fill="#EE2852" d="M23.746,9.082c-0.16,0.29-0.396,0.532-0.705,0.726c-0.311,0.193-0.682,0.303-1.115,0.329v0.811h-0.54
		v-0.811c-0.606-0.053-1.101-0.248-1.479-0.585c-0.381-0.336-0.574-0.765-0.58-1.284h0.97c0.026,0.279,0.132,0.523,0.315,0.729
		c0.183,0.207,0.441,0.337,0.774,0.39v-2.5c-0.446-0.113-0.807-0.23-1.08-0.35s-0.507-0.307-0.7-0.56s-0.289-0.593-0.289-1.02
		c0-0.54,0.188-0.986,0.564-1.34s0.879-0.55,1.505-0.59v-0.83h0.54v0.83c0.566,0.046,1.023,0.228,1.37,0.545
		c0.347,0.316,0.546,0.729,0.601,1.235h-0.971c-0.033-0.233-0.137-0.445-0.311-0.635c-0.173-0.19-0.402-0.315-0.689-0.375v2.44
		c0.439,0.113,0.799,0.229,1.075,0.345c0.276,0.117,0.51,0.302,0.7,0.555c0.189,0.253,0.285,0.596,0.285,1.03
		C23.986,8.487,23.906,8.792,23.746,9.082z M20.535,5.657c0.193,0.173,0.477,0.316,0.851,0.43v-2.31
		c-0.347,0.033-0.624,0.145-0.83,0.335s-0.31,0.455-0.31,0.795C20.246,5.234,20.342,5.484,20.535,5.657z M22.771,9.007
		c0.203-0.22,0.305-0.483,0.305-0.79c0-0.326-0.101-0.578-0.301-0.755c-0.199-0.176-0.482-0.318-0.85-0.425v2.36
		C22.285,9.357,22.567,9.228,22.771,9.007z"/>
</g>
<g>
	<path fill="#EE2852" d="M23.74,19.041c-0.159,0.29-0.395,0.532-0.704,0.726s-0.683,0.303-1.115,0.329v0.811h-0.54v-0.811
		c-0.606-0.053-1.1-0.248-1.48-0.585c-0.379-0.336-0.572-0.765-0.58-1.284h0.971c0.026,0.279,0.131,0.523,0.314,0.729
		c0.184,0.207,0.441,0.337,0.775,0.39v-2.5c-0.447-0.113-0.807-0.229-1.08-0.35s-0.506-0.307-0.699-0.561
		c-0.193-0.253-0.291-0.593-0.291-1.02c0-0.54,0.188-0.986,0.565-1.34c0.376-0.354,0.878-0.55,1.505-0.59v-0.83h0.54v0.83
		c0.566,0.046,1.023,0.228,1.37,0.545c0.347,0.316,0.547,0.729,0.6,1.234h-0.97c-0.033-0.232-0.137-0.444-0.31-0.635
		c-0.174-0.189-0.404-0.314-0.69-0.375v2.44c0.44,0.113,0.798,0.229,1.075,0.345c0.276,0.117,0.51,0.302,0.699,0.555
		c0.19,0.254,0.285,0.597,0.285,1.03C23.98,18.446,23.9,18.751,23.74,19.041z M20.531,15.616c0.193,0.173,0.477,0.316,0.85,0.43
		v-2.31c-0.347,0.033-0.623,0.145-0.83,0.335s-0.311,0.455-0.311,0.795C20.24,15.193,20.338,15.443,20.531,15.616z M22.766,18.966
		c0.203-0.22,0.305-0.483,0.305-0.79c0-0.326-0.1-0.578-0.299-0.755c-0.201-0.177-0.484-0.317-0.851-0.425v2.36
		C22.281,19.316,22.563,19.187,22.766,18.966z"/>
</g>
<line fill="none" stroke="#EE2A53" stroke-miterlimit="10" x1="0.014" y1="6.482" x2="16.014" y2="6.482"/>
<line fill="none" stroke="#EE2A53" stroke-miterlimit="10" x1="0.02" y1="17.484" x2="16.02" y2="17.484"/>
</svg>
