<svg xmlns="http://www.w3.org/2000/svg" xmlns:xlink="http://www.w3.org/1999/xlink" x="0px" y="0px"
	 width="24px" height="24px" viewBox="0 0 24 24" enable-background="new 0 0 24 24" xml:space="preserve">
<line fill="none" stroke="#EE2A53" stroke-miterlimit="10" x1="8" y1="6.563" x2="24" y2="6.563"/>
<line fill="none" stroke="#EE2A53" stroke-miterlimit="10" x1="8" y1="10.525" x2="24" y2="10.525"/>
<line fill="none" stroke="#EE2A53" stroke-miterlimit="10" x1="0" y1="14.51" x2="24" y2="14.51"/>
<line fill="none" stroke="#EE2A53" stroke-miterlimit="10" x1="0" y1="18.5" x2="24" y2="18.5"/>
<g>
	<path fill="#EE2A53" d="M1.118,11.98l-0.579-0.43c0.157-0.2,0.321-0.485,0.493-0.856c0.171-0.372,0.311-0.783,0.417-1.233
		c0.107-0.449,0.132-0.889,0.075-1.317c-0.1,0.044-0.193,0.075-0.279,0.098C1.16,8.263,1.075,8.273,0.989,8.273
		c-0.271,0-0.503-0.101-0.696-0.301c-0.193-0.2-0.29-0.449-0.29-0.75c0-0.399,0.118-0.707,0.354-0.92
		C0.593,6.087,0.868,5.98,1.182,5.98c0.5,0,0.878,0.19,1.136,0.568C2.574,6.927,2.703,7.388,2.703,7.93
		c0,0.358-0.068,0.793-0.204,1.308c-0.136,0.513-0.322,1.018-0.557,1.51C1.707,11.24,1.432,11.65,1.118,11.98z"/>
</g>
<g>
	<path fill="#EE2A53" d="M4.577,11.98l-0.579-0.43c0.157-0.2,0.321-0.485,0.493-0.856c0.171-0.372,0.311-0.783,0.418-1.233
		c0.107-0.449,0.132-0.889,0.075-1.317c-0.1,0.044-0.193,0.075-0.279,0.098C4.62,8.263,4.534,8.273,4.448,8.273
		c-0.271,0-0.503-0.101-0.696-0.301c-0.193-0.2-0.289-0.449-0.289-0.75c0-0.399,0.118-0.707,0.354-0.92
		C4.052,6.087,4.327,5.98,4.641,5.98c0.5,0,0.878,0.19,1.136,0.568C6.034,6.927,6.163,7.388,6.163,7.93
		c0,0.358-0.068,0.793-0.204,1.308c-0.136,0.513-0.322,1.018-0.557,1.51C5.166,11.24,4.891,11.65,4.577,11.98z"/>
</g>
</svg>
