<svg xmlns="http://www.w3.org/2000/svg" xmlns:xlink="http://www.w3.org/1999/xlink" x="0px" y="0px"
	 width="24px" height="24px" viewBox="0 0 24 24" enable-background="new 0 0 24 24" xml:space="preserve">
<g>
	<path fill="#EE2852" d="M11.763,17.567c-0.444-0.5-0.831-0.973-1.16-1.418c-0.33-0.443-0.663-0.93-0.999-1.461
		c-0.337-0.529-0.641-1.12-0.913-1.771c-0.272-0.652-0.437-1.258-0.494-1.816c-0.015-0.172-0.021-0.336-0.021-0.494
		c0-1.06,0.376-1.966,1.128-2.718s1.658-1.128,2.718-1.128c1.059,0,1.965,0.376,2.717,1.128s1.129,1.658,1.129,2.718
		c0,0.144-0.008,0.301-0.021,0.473c-0.059,0.574-0.227,1.189-0.506,1.847c-0.279,0.66-0.568,1.236-0.869,1.73
		s-0.642,0.995-1.021,1.504c-0.379,0.508-0.641,0.848-0.783,1.02c-0.145,0.172-0.258,0.301-0.344,0.387
		c-0.043,0.058-0.102,0.107-0.172,0.15c-0.043,0.015-0.08,0.021-0.107,0.021c-0.029,0-0.065-0.007-0.108-0.021
		C11.877,17.675,11.82,17.625,11.763,17.567z M9.55,10.618c0,0.681,0.24,1.264,0.72,1.75c0.479,0.488,1.063,0.73,1.751,0.73
		c0.688,0,1.271-0.242,1.75-0.73c0.48-0.486,0.721-1.07,0.721-1.75c0-0.68-0.24-1.264-0.721-1.751
		c-0.479-0.487-1.063-0.73-1.75-0.73c-0.688,0-1.272,0.244-1.751,0.73C9.79,9.354,9.55,9.938,9.55,10.618z"/>
</g>
<rect x="0.5" y="3.484" fill="none" stroke="#EE2852" stroke-miterlimit="10" width="23" height="17"/>
</svg>
