<svg xmlns="http://www.w3.org/2000/svg" xmlns:xlink="http://www.w3.org/1999/xlink" x="0px" y="0px"
	 width="24px" height="24px" viewBox="0 0 24 24" enable-background="new 0 0 24 24" xml:space="preserve">
<rect x="12" y="22.021" fill="none" width="2.997" height="0.979"/>
<polygon fill="none" points="15.11,23 15.11,23.5 15.112,23 "/>
<path fill="none" d="M11.86,12.021h3.25c0.523,0,0.89,0.388,0.89,0.942v5.079h1v-13H7v13h4v-5.079
	C11,12.313,11.432,12.021,11.86,12.021z"/>
<path fill="#EE2852" d="M6,4.043v15h5v1.038c0,0.649,0.432,0.94,0.86,0.94h3.25c0.523,0,0.89-0.387,0.89-0.94v-1.038h2v-15H6z
	 M14.998,18.043l-0.001,1v0.979H12l0.001-0.979v-1l0.004-5.021H15L14.998,18.043z M15.11,20.521v-0.5c0.001,0,0.001,0,0.002,0
	L15.11,20.521z M17,18.043h-1v-5.079c0-0.555-0.366-0.942-0.89-0.942h-3.25c-0.429,0-0.86,0.291-0.86,0.942v5.079H7v-13h10V18.043z"
	/>
<rect y="5.043" fill="none" width="3.021" height="13"/>
<polygon fill="#EE2852" points="4.021,4.043 0,4.043 0,5.043 3.021,5.043 3.021,18.043 0,18.043 0,19.043 4.021,19.043 "/>
<rect x="20.979" y="5.043" fill="none" width="3.021" height="13"/>
<polygon fill="#EE2852" points="20.979,18.043 20.979,5.043 24,5.043 24,4.043 19.979,4.043 19.979,19.043 24,19.043 24,18.043 "/>
</svg>
