<svg xmlns="http://www.w3.org/2000/svg" xmlns:xlink="http://www.w3.org/1999/xlink" x="0px" y="0px"
	 width="24px" height="24px" viewBox="0 0 24 24" xml:space="preserve">
<path fill="none" d="M31.962,3.867L28.43,14.573l-7.604,8.237c1.614,0.881,3.416,1.344,5.247,1.344c6.065,0,11-4.935,11-11
	C37.072,9.254,35.031,5.821,31.962,3.867z"/>
<path fill="#EE2852" d="M19.257,23.035"/>
<path fill="#EE2852" d="M15.325-24.576l-0.003,0.009c0.036,0.01,0.072,0.017,0.108,0.028C15.395-24.55,15.361-24.565,15.325-24.576z
	"/>
<path fill="#EE2852" d="M15.431,0.479C14.374,0.173,13.262,0,12.108,0C9.204,0,6.538,1.039,4.46,2.761l7.685,8.206L15.431,0.479z
	 M5.956,2.886C7.714,1.696,9.831,1,12.108,1c0.709,0,1.4,0.073,2.072,0.202l-2.475,7.832L5.956,2.886z"/>
<path fill="none" d="M3.308-7.267L3.31-7.269l9.94-0.091l3.005,1.832c3.688-1.778,6.245-5.543,6.245-9.904c0-6.065-4.935-11-11-11
	c-3.388,0-7.124,0.854-9.154,3.259c-0.017,0.02-0.035,0.037-0.051,0.057l8.412,8.436L3.308-7.267z M3.845-22.6
	c0,0.001-0.001,0.001-0.001,0.002h0C3.844-22.598,3.844-22.599,3.845-22.6c0.002-0.002,0.004-0.005,0.007-0.007l0,0
	C3.85-22.604,3.847-22.602,3.845-22.6z"/>
<path fill="none" d="M9.293-14.682l-6.89-6.925c-1.2,1.762-1.903,3.888-1.903,6.176c0,2.66,0.95,5.102,2.527,7.006L9.293-14.682z"/>
<path fill="#EE2852" d="M2.292-23.118l0.002,0.002c0.016-0.02-0.017,0.02,0,0C2.278-23.096,2.308-23.138,2.292-23.118z"/>
<polygon fill="#EE2852" points="3.845,-22.6 3.852,-22.606 3.852,-22.607 "/>
<polygon fill="#EE2852" points="3.843,-22.598 3.845,-22.6 3.843,-22.598 "/>
<polygon fill="#EE2852" points="3.308,-7.267 2.998,-6.973 3.006,-6.964 "/>
<polygon fill="#EE2852" points="3.005,-6.964 3.008,-6.961 3.006,-6.964 "/>
<path fill="none" d="M2.403-21.607c-1.2,1.762-1.903,3.888-1.903,6.176c0,2.66,0.95,5.102,2.527,7.006l6.267-6.257L2.403-21.607z"/>
<path fill="#EE2852" d="M3.025,4.156L3.025,4.156L2.787,3.934C1.05,6.016,0,8.691,0,11.608c0,3.298,1.338,6.288,3.498,8.459
	l0.31-0.294l7.399-7.413L3.025,4.156z M3.527,18.615C1.949,16.711,1,14.269,1,11.608c0-2.288,0.703-4.414,1.903-6.176l6.89,6.926
	L3.527,18.615z"/>
<polygon fill="#EE2852" points="2.525,-22.884 2.294,-23.116 2.287,-23.106 2.525,-22.884 "/>
<path fill="none" d="M18.821,23.344"/>
<path fill="none" d="M31.962,3.867L28.43,14.573l-7.604,8.237c1.614,0.881,3.416,1.344,5.247,1.344c6.065,0,11-4.935,11-11
	C37.072,9.254,35.031,5.821,31.962,3.867z"/>
<path fill="#EE2852" d="M17.28,1.224c0,0-0.002,0-0.006,0l-0.182,0.561l-0.001,0.002L13.549,12.82l-8.364,9.06L5.7,22.198
	c0.001,0.001,0.003,0.002,0.005,0.003l0.346,0.215l0.005-0.006C7.872,23.451,9.918,24,12,24c6.617,0,12-5.385,12-12.001
	C24,7.275,21.256,3.183,17.28,1.224z M12,22.999c-1.831,0-3.633-0.463-5.247-1.344l7.604-8.237L17.89,2.712
	C20.959,4.666,23,8.099,23,11.999C23,18.064,18.065,22.999,12,22.999z"/>
<rect x="31.254" y="2.365" fill="#EE2A53" width="0.002" height="0.591"/>
</svg>
