<svg xmlns="http://www.w3.org/2000/svg" xmlns:xlink="http://www.w3.org/1999/xlink" x="0px" y="0px"
	 width="24px" height="24px" viewBox="0 0 24 24" enable-background="new 0 0 24 24" xml:space="preserve">
<g>
	<path fill="#EE2852" d="M17.091,15.982h-3.25c-0.429,0-0.86-0.259-0.86-0.835V8.82c0-0.579,0.432-0.837,0.86-0.837h3.25
		c0.523,0,0.89,0.345,0.89,0.837v6.328C17.98,15.639,17.614,15.982,17.091,15.982z M17.091,15.093v0.445l0.002-0.445
		C17.092,15.093,17.092,15.093,17.091,15.093z M13.981,15.027h2.997l0.012-6.074h-2.995L13.981,15.027z"/>
</g>
<path fill="#EE2852" d="M8.534,5H0v1h8.534C8.791,6,9,6.172,9,6.384L8.985,17.54c0,0.212-0.194,0.425-0.451,0.425H0v1h8.534
	c0.808,0,1.466-0.592,1.466-1.316V6.315C10,5.59,9.342,5,8.534,5z"/>
<rect x="1.839" y="17.965" fill="#EE2852" width="1.656" height="1"/>
<path fill="none" d="M22,6.384l0.015,11.156c0,0.212,0.194,0.425,0.451,0.425H24V6h-1.534C22.209,6,22,6.172,22,6.384z"/>
<path fill="#EE2852" d="M22.466,17.965c-0.257,0-0.451-0.213-0.451-0.425L22,6.384C22,6.172,22.209,6,22.466,6H24V5h-1.534
	C21.657,5,21,5.59,21,6.315v11.333c0,0.725,0.657,1.316,1.466,1.316H24v-1H22.466z"/>
</svg>
