<svg xmlns="http://www.w3.org/2000/svg" xmlns:xlink="http://www.w3.org/1999/xlink" x="0px" y="0px"
	 width="24px" height="24px" viewBox="0 0 24 24" enable-background="new 0 0 24 24" xml:space="preserve">
<polyline fill="none" stroke="#EE2A53" stroke-width="0.75" stroke-miterlimit="10" points="6.966,18.224 9.021,20.277 
	6.873,22.427 "/>
<polyline fill="none" stroke="#EE2A53" stroke-width="0.75" stroke-miterlimit="10" points="4.451,18.224 2.396,20.277 
	4.544,22.427 "/>
<path fill="none" d="M18.034,8.26H14.26c-0.129,0-0.238,0.084-0.238,0.183V15.5h4.25V8.443C18.271,8.344,18.163,8.26,18.034,8.26z"
	/>
<path fill="#EE2A53" d="M20.448,3.042H3.344c-0.729,0-1.323,0.603-1.323,1.344v11.062c0,0.741,0.594,1.345,1.323,1.345h9.927v1.076
	c0,0.515,0.443,0.934,0.988,0.934h3.774c0.544,0,0.987-0.419,0.987-0.934v-1.076h1.427c0.729,0,1.322-0.604,1.322-1.345V4.386
	C21.771,3.645,21.178,3.042,20.448,3.042z M18.271,16.042v0.75v1.076c0,0.1-0.108,0.184-0.237,0.184H14.26
	c-0.129,0-0.238-0.084-0.238-0.184v-1.076v-0.75V8.985c0-0.099,0.109-0.183,0.238-0.183h3.774c0.129,0,0.237,0.084,0.237,0.183
	V16.042z M21.021,15.447c0,0.328-0.257,0.595-0.572,0.595h-1.427V8.985c0-0.515-0.443-0.933-0.987-0.933H14.26
	c-0.545,0-0.988,0.418-0.988,0.933v7.057H3.344c-0.316,0-0.573-0.267-0.573-0.595V4.386c0-0.327,0.257-0.594,0.573-0.594h17.104
	c0.315,0,0.572,0.267,0.572,0.594V15.447z"/>
</svg>
