<svg xmlns="http://www.w3.org/2000/svg" xmlns:xlink="http://www.w3.org/1999/xlink" x="0px" y="0px"
	 width="24px" height="24px" viewBox="0 0 24 24" enable-background="new 0 0 24 24" xml:space="preserve">
<g>
	<path fill="#EE2852" d="M2.719,16.042V7.839H0.001V6.941h6.526v0.897H3.811v8.203H2.719z"/>
	<path fill="#EE2852" d="M10.129,16.042v-3.458L7.165,6.941H8.4l2.275,4.603l2.274-4.603h1.223l-2.951,5.643v3.458H10.129z"/>
	<path fill="#EE2852" d="M15.394,16.042V6.941h2.99c0.71,0,1.296,0.117,1.755,0.352s0.799,0.551,1.021,0.949s0.331,0.85,0.331,1.352
		c0,0.494-0.107,0.94-0.324,1.339c-0.217,0.399-0.555,0.718-1.014,0.956c-0.46,0.238-1.049,0.357-1.769,0.357h-1.897v3.796H15.394z
		 M16.486,11.323h1.871c0.729,0,1.246-0.154,1.554-0.462s0.462-0.729,0.462-1.268c0-0.546-0.154-0.973-0.462-1.28
		s-0.825-0.462-1.554-0.462h-1.871V11.323z"/>
</g>
<line fill="none" stroke="#EE2852" stroke-miterlimit="10" x1="23.469" y1="4.875" x2="23.469" y2="17.875"/>
</svg>
